<mxfile host="Electron" agent="Mozilla/5.0 (Macintosh; Intel Mac OS X 10_15_7) AppleWebKit/537.36 (KHTML, like Gecko) draw.io/26.2.15 Chrome/134.0.6998.205 Electron/35.2.1 Safari/537.36" version="26.2.15">
  <diagram name="第 1 页" id="In5ry2Cb5ad67F59lVjL">
    <mxGraphModel dx="946" dy="634" grid="1" gridSize="10" guides="1" tooltips="1" connect="1" arrows="1" fold="1" page="1" pageScale="1" pageWidth="827" pageHeight="1169" math="0" shadow="0">
      <root>
        <mxCell id="0" />
        <mxCell id="1" parent="0" />
        <mxCell id="lodZGIAzC3PX8l3yWjvU-48" value="Results and Analysis" style="whiteSpace=wrap;strokeWidth=2;" vertex="1" parent="1">
          <mxGeometry x="20" y="1752" width="620" height="336" as="geometry" />
        </mxCell>
        <mxCell id="lodZGIAzC3PX8l3yWjvU-49" value="Model Training and Evaluation" style="whiteSpace=wrap;strokeWidth=2;" vertex="1" parent="1">
          <mxGeometry x="24" y="1214" width="613" height="488" as="geometry" />
        </mxCell>
        <mxCell id="lodZGIAzC3PX8l3yWjvU-50" value="Data Preparation and Feature Engineering" style="whiteSpace=wrap;strokeWidth=2;" vertex="1" parent="1">
          <mxGeometry x="72" y="150" width="528" height="1014" as="geometry" />
        </mxCell>
        <mxCell id="lodZGIAzC3PX8l3yWjvU-51" value="Accident data: collision_2023.csv" style="whiteSpace=wrap;strokeWidth=2;" vertex="1" parent="1">
          <mxGeometry x="49" y="20" width="260" height="78" as="geometry" />
        </mxCell>
        <mxCell id="lodZGIAzC3PX8l3yWjvU-52" value="Feature extraction and merging" style="rhombus;strokeWidth=2;whiteSpace=wrap;" vertex="1" parent="1">
          <mxGeometry x="195" y="173" width="278" height="278" as="geometry" />
        </mxCell>
        <mxCell id="lodZGIAzC3PX8l3yWjvU-53" value="Vehicle data: vehicle_2023.csv" style="whiteSpace=wrap;strokeWidth=2;" vertex="1" parent="1">
          <mxGeometry x="359" y="20" width="260" height="78" as="geometry" />
        </mxCell>
        <mxCell id="lodZGIAzC3PX8l3yWjvU-54" value="Feature classification: Vehicle / Road / Environment / Time" style="whiteSpace=wrap;strokeWidth=2;" vertex="1" parent="1">
          <mxGeometry x="204" y="501" width="260" height="102" as="geometry" />
        </mxCell>
        <mxCell id="lodZGIAzC3PX8l3yWjvU-55" value="EDA: Time distribution / Environmental correlation / Feature correlation" style="whiteSpace=wrap;strokeWidth=2;" vertex="1" parent="1">
          <mxGeometry x="204" y="653" width="260" height="102" as="geometry" />
        </mxCell>
        <mxCell id="lodZGIAzC3PX8l3yWjvU-56" value="Feature processing: Encoding / Standardization" style="whiteSpace=wrap;strokeWidth=2;" vertex="1" parent="1">
          <mxGeometry x="204" y="805" width="260" height="78" as="geometry" />
        </mxCell>
        <mxCell id="lodZGIAzC3PX8l3yWjvU-57" value="PCA Dimensionality Reduction" style="whiteSpace=wrap;strokeWidth=2;" vertex="1" parent="1">
          <mxGeometry x="204" y="933" width="260" height="78" as="geometry" />
        </mxCell>
        <mxCell id="lodZGIAzC3PX8l3yWjvU-58" value="SMOTE Oversampling for Imbalanced Data" style="whiteSpace=wrap;strokeWidth=2;" vertex="1" parent="1">
          <mxGeometry x="204" y="1061" width="260" height="78" as="geometry" />
        </mxCell>
        <mxCell id="lodZGIAzC3PX8l3yWjvU-59" value="Logistic Regression Training" style="whiteSpace=wrap;strokeWidth=2;" vertex="1" parent="1">
          <mxGeometry x="60" y="1239" width="256" height="54" as="geometry" />
        </mxCell>
        <mxCell id="lodZGIAzC3PX8l3yWjvU-60" value="Random Forest Training" style="whiteSpace=wrap;strokeWidth=2;" vertex="1" parent="1">
          <mxGeometry x="366" y="1239" width="228" height="54" as="geometry" />
        </mxCell>
        <mxCell id="lodZGIAzC3PX8l3yWjvU-61" value="Cross-validation - 5-fold stratified" style="whiteSpace=wrap;strokeWidth=2;" vertex="1" parent="1">
          <mxGeometry x="204" y="1343" width="260" height="78" as="geometry" />
        </mxCell>
        <mxCell id="lodZGIAzC3PX8l3yWjvU-62" value="Model Evaluation: Weighted F1 Score" style="whiteSpace=wrap;strokeWidth=2;" vertex="1" parent="1">
          <mxGeometry x="204" y="1471" width="260" height="78" as="geometry" />
        </mxCell>
        <mxCell id="lodZGIAzC3PX8l3yWjvU-63" value="Model Comparison: Select Best Model" style="whiteSpace=wrap;strokeWidth=2;" vertex="1" parent="1">
          <mxGeometry x="204" y="1599" width="260" height="78" as="geometry" />
        </mxCell>
        <mxCell id="lodZGIAzC3PX8l3yWjvU-64" value="Best Model Analysis: Precision / Recall / F1" style="whiteSpace=wrap;strokeWidth=2;" vertex="1" parent="1">
          <mxGeometry x="55" y="1777" width="260" height="78" as="geometry" />
        </mxCell>
        <mxCell id="lodZGIAzC3PX8l3yWjvU-65" value="SMOTE Effect Evaluation" style="whiteSpace=wrap;strokeWidth=2;" vertex="1" parent="1">
          <mxGeometry x="365" y="1789" width="236" height="54" as="geometry" />
        </mxCell>
        <mxCell id="lodZGIAzC3PX8l3yWjvU-66" value="Conclusion and Limitations" style="whiteSpace=wrap;strokeWidth=2;" vertex="1" parent="1">
          <mxGeometry x="208" y="1905" width="252" height="54" as="geometry" />
        </mxCell>
        <mxCell id="lodZGIAzC3PX8l3yWjvU-67" value="Future Improvements" style="whiteSpace=wrap;strokeWidth=2;" vertex="1" parent="1">
          <mxGeometry x="227" y="2009" width="214" height="54" as="geometry" />
        </mxCell>
        <mxCell id="lodZGIAzC3PX8l3yWjvU-68" value="Data" style="whiteSpace=wrap;strokeWidth=2;" vertex="1" parent="1">
          <mxGeometry x="669" y="32" width="93" height="54" as="geometry" />
        </mxCell>
        <mxCell id="lodZGIAzC3PX8l3yWjvU-69" value="Model" style="whiteSpace=wrap;strokeWidth=2;" vertex="1" parent="1">
          <mxGeometry x="812" y="32" width="102" height="54" as="geometry" />
        </mxCell>
        <mxCell id="lodZGIAzC3PX8l3yWjvU-70" value="Results" style="whiteSpace=wrap;strokeWidth=2;" vertex="1" parent="1">
          <mxGeometry x="964" y="32" width="110" height="54" as="geometry" />
        </mxCell>
        <mxCell id="lodZGIAzC3PX8l3yWjvU-71" value="" style="curved=1;startArrow=none;endArrow=block;exitX=0.5;exitY=1;entryX=0.03;entryY=0;rounded=0;" edge="1" parent="1" source="lodZGIAzC3PX8l3yWjvU-51" target="lodZGIAzC3PX8l3yWjvU-52">
          <mxGeometry relative="1" as="geometry">
            <Array as="points">
              <mxPoint x="179" y="148" />
            </Array>
          </mxGeometry>
        </mxCell>
        <mxCell id="lodZGIAzC3PX8l3yWjvU-72" value="" style="curved=1;startArrow=none;endArrow=block;exitX=0.5;exitY=1;entryX=0.97;entryY=0;rounded=0;" edge="1" parent="1" source="lodZGIAzC3PX8l3yWjvU-53" target="lodZGIAzC3PX8l3yWjvU-52">
          <mxGeometry relative="1" as="geometry">
            <Array as="points">
              <mxPoint x="489" y="148" />
            </Array>
          </mxGeometry>
        </mxCell>
        <mxCell id="lodZGIAzC3PX8l3yWjvU-73" value="" style="curved=1;startArrow=none;endArrow=block;exitX=0.5;exitY=1;entryX=0.5;entryY=0;rounded=0;" edge="1" parent="1" source="lodZGIAzC3PX8l3yWjvU-52" target="lodZGIAzC3PX8l3yWjvU-54">
          <mxGeometry relative="1" as="geometry">
            <Array as="points" />
          </mxGeometry>
        </mxCell>
        <mxCell id="lodZGIAzC3PX8l3yWjvU-74" value="" style="curved=1;startArrow=none;endArrow=block;exitX=0.5;exitY=1;entryX=0.5;entryY=0;rounded=0;" edge="1" parent="1" source="lodZGIAzC3PX8l3yWjvU-54" target="lodZGIAzC3PX8l3yWjvU-55">
          <mxGeometry relative="1" as="geometry">
            <Array as="points" />
          </mxGeometry>
        </mxCell>
        <mxCell id="lodZGIAzC3PX8l3yWjvU-75" value="" style="curved=1;startArrow=none;endArrow=block;exitX=0.5;exitY=1;entryX=0.5;entryY=0;rounded=0;" edge="1" parent="1" source="lodZGIAzC3PX8l3yWjvU-55" target="lodZGIAzC3PX8l3yWjvU-56">
          <mxGeometry relative="1" as="geometry">
            <Array as="points" />
          </mxGeometry>
        </mxCell>
        <mxCell id="lodZGIAzC3PX8l3yWjvU-76" value="" style="curved=1;startArrow=none;endArrow=block;exitX=0.5;exitY=1;entryX=0.5;entryY=0;rounded=0;" edge="1" parent="1" source="lodZGIAzC3PX8l3yWjvU-56" target="lodZGIAzC3PX8l3yWjvU-57">
          <mxGeometry relative="1" as="geometry">
            <Array as="points" />
          </mxGeometry>
        </mxCell>
        <mxCell id="lodZGIAzC3PX8l3yWjvU-77" value="" style="curved=1;startArrow=none;endArrow=block;exitX=0.5;exitY=1;entryX=0.5;entryY=0;rounded=0;" edge="1" parent="1" source="lodZGIAzC3PX8l3yWjvU-57" target="lodZGIAzC3PX8l3yWjvU-58">
          <mxGeometry relative="1" as="geometry">
            <Array as="points" />
          </mxGeometry>
        </mxCell>
        <mxCell id="lodZGIAzC3PX8l3yWjvU-78" value="" style="curved=1;startArrow=none;endArrow=block;exitX=0.16;exitY=1;entryX=0.5;entryY=0;rounded=0;" edge="1" parent="1" source="lodZGIAzC3PX8l3yWjvU-58" target="lodZGIAzC3PX8l3yWjvU-59">
          <mxGeometry relative="1" as="geometry">
            <Array as="points">
              <mxPoint x="188" y="1164" />
            </Array>
          </mxGeometry>
        </mxCell>
        <mxCell id="lodZGIAzC3PX8l3yWjvU-79" value="" style="curved=1;startArrow=none;endArrow=block;exitX=0.84;exitY=1;entryX=0.5;entryY=0;rounded=0;" edge="1" parent="1" source="lodZGIAzC3PX8l3yWjvU-58" target="lodZGIAzC3PX8l3yWjvU-60">
          <mxGeometry relative="1" as="geometry">
            <Array as="points">
              <mxPoint x="480" y="1164" />
            </Array>
          </mxGeometry>
        </mxCell>
        <mxCell id="lodZGIAzC3PX8l3yWjvU-80" value="" style="curved=1;startArrow=none;endArrow=block;exitX=0.5;exitY=1;entryX=0.16;entryY=0;rounded=0;" edge="1" parent="1" source="lodZGIAzC3PX8l3yWjvU-59" target="lodZGIAzC3PX8l3yWjvU-61">
          <mxGeometry relative="1" as="geometry">
            <Array as="points">
              <mxPoint x="188" y="1318" />
            </Array>
          </mxGeometry>
        </mxCell>
        <mxCell id="lodZGIAzC3PX8l3yWjvU-81" value="" style="curved=1;startArrow=none;endArrow=block;exitX=0.5;exitY=1;entryX=0.84;entryY=0;rounded=0;" edge="1" parent="1" source="lodZGIAzC3PX8l3yWjvU-60" target="lodZGIAzC3PX8l3yWjvU-61">
          <mxGeometry relative="1" as="geometry">
            <Array as="points">
              <mxPoint x="480" y="1318" />
            </Array>
          </mxGeometry>
        </mxCell>
        <mxCell id="lodZGIAzC3PX8l3yWjvU-82" value="" style="curved=1;startArrow=none;endArrow=block;exitX=0.5;exitY=1;entryX=0.5;entryY=0;rounded=0;" edge="1" parent="1" source="lodZGIAzC3PX8l3yWjvU-61" target="lodZGIAzC3PX8l3yWjvU-62">
          <mxGeometry relative="1" as="geometry">
            <Array as="points" />
          </mxGeometry>
        </mxCell>
        <mxCell id="lodZGIAzC3PX8l3yWjvU-83" value="" style="curved=1;startArrow=none;endArrow=block;exitX=0.5;exitY=1;entryX=0.5;entryY=0;rounded=0;" edge="1" parent="1" source="lodZGIAzC3PX8l3yWjvU-62" target="lodZGIAzC3PX8l3yWjvU-63">
          <mxGeometry relative="1" as="geometry">
            <Array as="points" />
          </mxGeometry>
        </mxCell>
        <mxCell id="lodZGIAzC3PX8l3yWjvU-84" value="" style="curved=1;startArrow=none;endArrow=block;exitX=0.15;exitY=1;entryX=0.5;entryY=0;rounded=0;" edge="1" parent="1" source="lodZGIAzC3PX8l3yWjvU-63" target="lodZGIAzC3PX8l3yWjvU-64">
          <mxGeometry relative="1" as="geometry">
            <Array as="points">
              <mxPoint x="185" y="1702" />
            </Array>
          </mxGeometry>
        </mxCell>
        <mxCell id="lodZGIAzC3PX8l3yWjvU-85" value="" style="curved=1;startArrow=none;endArrow=block;exitX=0.85;exitY=1;entryX=0.5;entryY=0;rounded=0;" edge="1" parent="1" source="lodZGIAzC3PX8l3yWjvU-63" target="lodZGIAzC3PX8l3yWjvU-65">
          <mxGeometry relative="1" as="geometry">
            <Array as="points">
              <mxPoint x="483" y="1702" />
            </Array>
          </mxGeometry>
        </mxCell>
        <mxCell id="lodZGIAzC3PX8l3yWjvU-86" value="" style="curved=1;startArrow=none;endArrow=block;exitX=0.5;exitY=1;entryX=0.19;entryY=0;rounded=0;" edge="1" parent="1" source="lodZGIAzC3PX8l3yWjvU-64" target="lodZGIAzC3PX8l3yWjvU-66">
          <mxGeometry relative="1" as="geometry">
            <Array as="points">
              <mxPoint x="185" y="1880" />
            </Array>
          </mxGeometry>
        </mxCell>
        <mxCell id="lodZGIAzC3PX8l3yWjvU-87" value="" style="curved=1;startArrow=none;endArrow=block;exitX=0.5;exitY=1;entryX=0.81;entryY=0;rounded=0;" edge="1" parent="1" source="lodZGIAzC3PX8l3yWjvU-65" target="lodZGIAzC3PX8l3yWjvU-66">
          <mxGeometry relative="1" as="geometry">
            <Array as="points">
              <mxPoint x="483" y="1880" />
            </Array>
          </mxGeometry>
        </mxCell>
        <mxCell id="lodZGIAzC3PX8l3yWjvU-88" value="" style="curved=1;startArrow=none;endArrow=block;exitX=0.5;exitY=1;entryX=0.5;entryY=0;rounded=0;" edge="1" parent="1" source="lodZGIAzC3PX8l3yWjvU-66" target="lodZGIAzC3PX8l3yWjvU-67">
          <mxGeometry relative="1" as="geometry">
            <Array as="points" />
          </mxGeometry>
        </mxCell>
      </root>
    </mxGraphModel>
  </diagram>
</mxfile>
